<svg width="24" height="24" xmlns="http://www.w3.org/2000/svg" viewBox="0 0 100 100" preserveAspectRatio="xMidYMid" class="uil-default"><path fill="none" class="bk" d="M0 0h100v100H0z"/><rect x="46.5" y="40" width="7" height="20" rx="5" ry="5" fill="#a0ed22" transform="translate(0 -30)"><animate attributeName="opacity" from="1" to="0" dur="0.5s" begin="0s" repeatCount="indefinite"/></rect><rect x="46.5" y="40" width="7" height="20" rx="5" ry="5" fill="#a0ed22" transform="rotate(32.727 101.085 65)"><animate attributeName="opacity" from="1" to="0" dur="0.5s" begin="0.045454545454545456s" repeatCount="indefinite"/></rect><rect x="46.5" y="40" width="7" height="20" rx="5" ry="5" fill="#a0ed22" transform="rotate(65.455 73.34 65)"><animate attributeName="opacity" from="1" to="0" dur="0.5s" begin="0.09090909090909091s" repeatCount="indefinite"/></rect><rect x="46.5" y="40" width="7" height="20" rx="5" ry="5" fill="#a0ed22" transform="rotate(98.182 62.998 65)"><animate attributeName="opacity" from="1" to="0" dur="0.5s" begin="0.13636363636363635s" repeatCount="indefinite"/></rect><rect x="46.5" y="40" width="7" height="20" rx="5" ry="5" fill="#a0ed22" transform="rotate(130.909 56.85 65)"><animate attributeName="opacity" from="1" to="0" dur="0.5s" begin="0.18181818181818182s" repeatCount="indefinite"/></rect><rect x="46.5" y="40" width="7" height="20" rx="5" ry="5" fill="#a0ed22" transform="rotate(163.636 52.157 65)"><animate attributeName="opacity" from="1" to="0" dur="0.5s" begin="0.22727272727272727s" repeatCount="indefinite"/></rect><rect x="46.5" y="40" width="7" height="20" rx="5" ry="5" fill="#a0ed22" transform="rotate(-163.636 47.843 65)"><animate attributeName="opacity" from="1" to="0" dur="0.5s" begin="0.2727272727272727s" repeatCount="indefinite"/></rect><rect x="46.5" y="40" width="7" height="20" rx="5" ry="5" fill="#a0ed22" transform="rotate(-130.909 43.15 65)"><animate attributeName="opacity" from="1" to="0" dur="0.5s" begin="0.3181818181818182s" repeatCount="indefinite"/></rect><rect x="46.5" y="40" width="7" height="20" rx="5" ry="5" fill="#a0ed22" transform="rotate(-98.182 37.002 65)"><animate attributeName="opacity" from="1" to="0" dur="0.5s" begin="0.36363636363636365s" repeatCount="indefinite"/></rect><rect x="46.5" y="40" width="7" height="20" rx="5" ry="5" fill="#a0ed22" transform="rotate(-65.455 26.66 65)"><animate attributeName="opacity" from="1" to="0" dur="0.5s" begin="0.4090909090909091s" repeatCount="indefinite"/></rect><rect x="46.5" y="40" width="7" height="20" rx="5" ry="5" fill="#a0ed22" transform="rotate(-32.727 -1.085 65)"><animate attributeName="opacity" from="1" to="0" dur="0.5s" begin="0.45454545454545453s" repeatCount="indefinite"/></rect></svg>